<mxfile host="app.diagrams.net" modified="2023-11-28T17:48:32.211Z" agent="Mozilla/5.0 (Windows NT 10.0; Win64; x64) AppleWebKit/537.36 (KHTML, like Gecko) Chrome/119.0.0.0 Safari/537.36" etag="5QylPvKCyifMDJa_cdyA" version="22.1.4" type="device">
  <diagram name="Page-1" id="2CNQCeX9BAJ8XAPQZo6j">
    <mxGraphModel dx="2603" dy="818" grid="1" gridSize="10" guides="1" tooltips="1" connect="1" arrows="1" fold="1" page="1" pageScale="1" pageWidth="1169" pageHeight="827" background="none" math="0" shadow="0">
      <root>
        <mxCell id="0" />
        <mxCell id="1" parent="0" />
        <mxCell id="24WfkbDJMfI8mmHEkIdc-26" style="edgeStyle=orthogonalEdgeStyle;rounded=0;orthogonalLoop=1;jettySize=auto;html=1;exitX=1;exitY=0.5;exitDx=0;exitDy=0;entryX=0;entryY=0.5;entryDx=0;entryDy=0;endArrow=none;endFill=0;" parent="1" source="4EoIY29dNoBSYB-6nft4-5" target="24WfkbDJMfI8mmHEkIdc-25" edge="1">
          <mxGeometry relative="1" as="geometry" />
        </mxCell>
        <mxCell id="4EoIY29dNoBSYB-6nft4-5" value="Equipaggio" style="html=1;align=center;fontStyle=0;labelBackgroundColor=none;fontColor=default;whiteSpace=wrap;labelBorderColor=none;verticalAlign=middle;horizontal=1;fontFamily=Helvetica;" parent="1" vertex="1">
          <mxGeometry x="690" y="328" width="100" height="40" as="geometry" />
        </mxCell>
        <mxCell id="4EoIY29dNoBSYB-6nft4-20" value="" style="endArrow=oval;html=1;rounded=0;exitX=0.1;exitY=0;exitDx=0;exitDy=0;exitPerimeter=0;endFill=1;labelBackgroundColor=none;fontColor=default;" parent="1" source="4EoIY29dNoBSYB-6nft4-5" edge="1">
          <mxGeometry width="50" height="50" relative="1" as="geometry">
            <mxPoint x="670" y="290" as="sourcePoint" />
            <mxPoint x="700" y="310" as="targetPoint" />
            <Array as="points">
              <mxPoint x="700" y="320" />
            </Array>
          </mxGeometry>
        </mxCell>
        <mxCell id="4EoIY29dNoBSYB-6nft4-21" value="ID" style="text;html=1;align=center;verticalAlign=middle;resizable=0;points=[];autosize=1;strokeColor=none;fillColor=none;labelBackgroundColor=none;" parent="1" vertex="1">
          <mxGeometry x="680" y="280" width="40" height="30" as="geometry" />
        </mxCell>
        <mxCell id="4EoIY29dNoBSYB-6nft4-23" value="" style="endArrow=oval;html=1;rounded=0;exitX=0.5;exitY=0;exitDx=0;exitDy=0;endFill=0;labelBackgroundColor=none;fontColor=default;dashed=1;" parent="1" edge="1">
          <mxGeometry width="50" height="50" relative="1" as="geometry">
            <mxPoint x="750.0000000000001" y="330" as="sourcePoint" />
            <mxPoint x="750" y="310" as="targetPoint" />
            <Array as="points">
              <mxPoint x="750" y="320" />
            </Array>
          </mxGeometry>
        </mxCell>
        <mxCell id="4EoIY29dNoBSYB-6nft4-24" value="#Piloti" style="text;html=1;align=center;verticalAlign=middle;resizable=0;points=[];autosize=1;strokeColor=none;fillColor=none;labelBackgroundColor=none;" parent="1" vertex="1">
          <mxGeometry x="720" y="280" width="60" height="30" as="geometry" />
        </mxCell>
        <mxCell id="4EoIY29dNoBSYB-6nft4-25" value="Pilota" style="html=1;align=center;fontStyle=0;labelBackgroundColor=none;fontColor=default;whiteSpace=wrap;labelBorderColor=none;verticalAlign=middle;horizontal=1;fontFamily=Helvetica;" parent="1" vertex="1">
          <mxGeometry x="1005" y="330" width="100" height="40" as="geometry" />
        </mxCell>
        <mxCell id="4EoIY29dNoBSYB-6nft4-26" value="" style="endArrow=oval;html=1;rounded=0;exitX=0.1;exitY=0;exitDx=0;exitDy=0;exitPerimeter=0;endFill=0;labelBackgroundColor=none;fontColor=default;" parent="1" target="4EoIY29dNoBSYB-6nft4-27" edge="1">
          <mxGeometry width="50" height="50" relative="1" as="geometry">
            <mxPoint x="1055" y="330" as="sourcePoint" />
            <mxPoint x="1055" y="310" as="targetPoint" />
            <Array as="points">
              <mxPoint x="1055" y="320" />
            </Array>
          </mxGeometry>
        </mxCell>
        <mxCell id="4EoIY29dNoBSYB-6nft4-27" value="Nome" style="text;html=1;align=center;verticalAlign=middle;resizable=0;points=[];autosize=1;strokeColor=none;fillColor=none;labelBackgroundColor=none;" parent="1" vertex="1">
          <mxGeometry x="1025" y="278" width="60" height="30" as="geometry" />
        </mxCell>
        <mxCell id="4EoIY29dNoBSYB-6nft4-28" value="" style="endArrow=oval;html=1;rounded=0;exitX=0.5;exitY=0;exitDx=0;exitDy=0;endFill=0;labelBackgroundColor=none;fontColor=default;" parent="1" edge="1">
          <mxGeometry width="50" height="50" relative="1" as="geometry">
            <mxPoint x="1105" y="330" as="sourcePoint" />
            <mxPoint x="1105" y="310" as="targetPoint" />
            <Array as="points">
              <mxPoint x="1105" y="320" />
            </Array>
          </mxGeometry>
        </mxCell>
        <mxCell id="4EoIY29dNoBSYB-6nft4-29" value="Cognome" style="text;html=1;align=center;verticalAlign=middle;resizable=0;points=[];autosize=1;strokeColor=none;fillColor=none;labelBackgroundColor=none;" parent="1" vertex="1">
          <mxGeometry x="1065" y="280" width="80" height="30" as="geometry" />
        </mxCell>
        <mxCell id="4EoIY29dNoBSYB-6nft4-31" value="" style="endArrow=oval;html=1;rounded=0;endFill=1;" parent="1" edge="1">
          <mxGeometry width="50" height="50" relative="1" as="geometry">
            <mxPoint x="1015" y="305" as="sourcePoint" />
            <mxPoint x="1015" y="305" as="targetPoint" />
            <Array as="points">
              <mxPoint x="1015" y="330" />
            </Array>
          </mxGeometry>
        </mxCell>
        <mxCell id="4EoIY29dNoBSYB-6nft4-36" value="" style="endArrow=oval;html=1;rounded=0;endFill=0;labelBackgroundColor=none;fontColor=default;exitX=1;exitY=0.5;exitDx=0;exitDy=0;entryX=0;entryY=0.664;entryDx=0;entryDy=0;entryPerimeter=0;" parent="1" source="4EoIY29dNoBSYB-6nft4-25" target="4EoIY29dNoBSYB-6nft4-37" edge="1">
          <mxGeometry width="50" height="50" relative="1" as="geometry">
            <mxPoint x="1105" y="340" as="sourcePoint" />
            <mxPoint x="1125" y="340" as="targetPoint" />
            <Array as="points">
              <mxPoint x="1115" y="350" />
              <mxPoint x="1125" y="350" />
            </Array>
          </mxGeometry>
        </mxCell>
        <mxCell id="4EoIY29dNoBSYB-6nft4-37" value="DDN" style="text;html=1;align=center;verticalAlign=middle;resizable=0;points=[];autosize=1;strokeColor=none;fillColor=none;rotation=0;" parent="1" vertex="1">
          <mxGeometry x="1125" y="330" width="50" height="30" as="geometry" />
        </mxCell>
        <mxCell id="4EoIY29dNoBSYB-6nft4-39" value="" style="endArrow=oval;html=1;rounded=0;endFill=0;labelBackgroundColor=none;fontColor=default;" parent="1" target="4EoIY29dNoBSYB-6nft4-40" edge="1">
          <mxGeometry width="50" height="50" relative="1" as="geometry">
            <mxPoint x="1095" y="370" as="sourcePoint" />
            <mxPoint x="1150" y="370" as="targetPoint" />
            <Array as="points" />
          </mxGeometry>
        </mxCell>
        <mxCell id="4EoIY29dNoBSYB-6nft4-40" value="NazionalitÃ " style="text;html=1;align=center;verticalAlign=middle;resizable=0;points=[];autosize=1;strokeColor=none;fillColor=none;rotation=0;" parent="1" vertex="1">
          <mxGeometry x="1110" y="380" width="80" height="30" as="geometry" />
        </mxCell>
        <mxCell id="4EoIY29dNoBSYB-6nft4-42" value="" style="shape=flexArrow;endArrow=classic;html=1;rounded=0;fillColor=#050505;" parent="1" edge="1">
          <mxGeometry width="50" height="50" relative="1" as="geometry">
            <mxPoint x="1054.71" y="410" as="sourcePoint" />
            <mxPoint x="1054.71" y="370" as="targetPoint" />
          </mxGeometry>
        </mxCell>
        <mxCell id="4EoIY29dNoBSYB-6nft4-43" value="" style="strokeWidth=1;html=1;shape=mxgraph.flowchart.annotation_1;align=left;pointerEvents=1;direction=south;" parent="1" vertex="1">
          <mxGeometry x="1005" y="410" width="100" height="50" as="geometry" />
        </mxCell>
        <mxCell id="4EoIY29dNoBSYB-6nft4-45" value="PRO" style="html=1;align=center;fontStyle=0;labelBackgroundColor=none;fontColor=default;whiteSpace=wrap;labelBorderColor=none;verticalAlign=middle;horizontal=1;fontFamily=Helvetica;" parent="1" vertex="1">
          <mxGeometry x="965" y="460" width="70" height="40" as="geometry" />
        </mxCell>
        <mxCell id="4EoIY29dNoBSYB-6nft4-46" value="AM" style="html=1;align=center;fontStyle=0;labelBackgroundColor=none;fontColor=default;whiteSpace=wrap;labelBorderColor=none;verticalAlign=middle;horizontal=1;fontFamily=Helvetica;" parent="1" vertex="1">
          <mxGeometry x="1075" y="460" width="70" height="40" as="geometry" />
        </mxCell>
        <mxCell id="4EoIY29dNoBSYB-6nft4-47" value="" style="endArrow=oval;html=1;rounded=0;endFill=0;labelBackgroundColor=none;fontColor=default;exitX=1;exitY=0.5;exitDx=0;exitDy=0;entryX=0;entryY=0.664;entryDx=0;entryDy=0;entryPerimeter=0;" parent="1" edge="1">
          <mxGeometry width="50" height="50" relative="1" as="geometry">
            <mxPoint x="1145" y="479.83" as="sourcePoint" />
            <mxPoint x="1165" y="479.83" as="targetPoint" />
            <Array as="points">
              <mxPoint x="1155" y="479.83" />
              <mxPoint x="1165" y="479.83" />
            </Array>
          </mxGeometry>
        </mxCell>
        <mxCell id="4EoIY29dNoBSYB-6nft4-48" value="Data_prima_&lt;br&gt;licenza" style="text;html=1;align=center;verticalAlign=middle;resizable=0;points=[];autosize=1;strokeColor=none;fillColor=none;" parent="1" vertex="1">
          <mxGeometry x="1160" y="460" width="90" height="40" as="geometry" />
        </mxCell>
        <mxCell id="4EoIY29dNoBSYB-6nft4-49" value="#Licenze" style="text;html=1;align=center;verticalAlign=middle;resizable=0;points=[];autosize=1;strokeColor=none;fillColor=none;" parent="1" vertex="1">
          <mxGeometry x="870" y="465" width="70" height="30" as="geometry" />
        </mxCell>
        <mxCell id="4EoIY29dNoBSYB-6nft4-52" value="" style="endArrow=oval;html=1;rounded=0;endFill=0;labelBackgroundColor=none;fontColor=default;exitX=0;exitY=0.5;exitDx=0;exitDy=0;" parent="1" source="4EoIY29dNoBSYB-6nft4-45" edge="1">
          <mxGeometry width="50" height="50" relative="1" as="geometry">
            <mxPoint x="935" y="489.83" as="sourcePoint" />
            <mxPoint x="945" y="480" as="targetPoint" />
            <Array as="points">
              <mxPoint x="955" y="480" />
              <mxPoint x="945" y="480" />
            </Array>
          </mxGeometry>
        </mxCell>
        <mxCell id="4EoIY29dNoBSYB-6nft4-54" value="" style="shape=flexArrow;endArrow=classic;html=1;rounded=0;fillColor=none;strokeColor=default;" parent="1" edge="1">
          <mxGeometry width="50" height="50" relative="1" as="geometry">
            <mxPoint x="1109.83" y="540" as="sourcePoint" />
            <mxPoint x="1109.83" y="500" as="targetPoint" />
          </mxGeometry>
        </mxCell>
        <mxCell id="4EoIY29dNoBSYB-6nft4-55" value="" style="endArrow=none;html=1;rounded=0;" parent="1" edge="1">
          <mxGeometry width="50" height="50" relative="1" as="geometry">
            <mxPoint x="1109.83" y="570" as="sourcePoint" />
            <mxPoint x="1109.83" y="540" as="targetPoint" />
            <Array as="points">
              <mxPoint x="1109.83" y="550" />
            </Array>
          </mxGeometry>
        </mxCell>
        <mxCell id="E5ixjJf9oxTP6WnFrqkC-3" style="edgeStyle=orthogonalEdgeStyle;rounded=0;orthogonalLoop=1;jettySize=auto;html=1;exitX=0;exitY=0.5;exitDx=0;exitDy=0;entryX=1;entryY=0.5;entryDx=0;entryDy=0;endArrow=none;endFill=0;" parent="1" source="4EoIY29dNoBSYB-6nft4-56" target="E5ixjJf9oxTP6WnFrqkC-2" edge="1">
          <mxGeometry relative="1" as="geometry" />
        </mxCell>
        <mxCell id="4EoIY29dNoBSYB-6nft4-56" value="Gentleman Driver" style="html=1;align=center;fontStyle=0;labelBackgroundColor=none;fontColor=default;whiteSpace=wrap;labelBorderColor=none;verticalAlign=middle;horizontal=1;fontFamily=Helvetica;" parent="1" vertex="1">
          <mxGeometry x="1065" y="570" width="90" height="30" as="geometry" />
        </mxCell>
        <mxCell id="4EoIY29dNoBSYB-6nft4-57" value="" style="endArrow=oval;html=1;rounded=0;endFill=0;labelBackgroundColor=none;fontColor=default;exitX=0.5;exitY=1;exitDx=0;exitDy=0;dashed=1;" parent="1" source="4EoIY29dNoBSYB-6nft4-56" edge="1">
          <mxGeometry width="50" height="50" relative="1" as="geometry">
            <mxPoint x="1075" y="649.9999999999999" as="sourcePoint" />
            <mxPoint x="1110" y="620" as="targetPoint" />
            <Array as="points">
              <mxPoint x="1110" y="610" />
              <mxPoint x="1110" y="620" />
            </Array>
          </mxGeometry>
        </mxCell>
        <mxCell id="4EoIY29dNoBSYB-6nft4-58" value="Totale_&lt;br&gt;finanziamenti" style="text;html=1;align=left;verticalAlign=middle;resizable=0;points=[];autosize=1;strokeColor=none;fillColor=none;" parent="1" vertex="1">
          <mxGeometry x="1079" y="615" width="90" height="40" as="geometry" />
        </mxCell>
        <mxCell id="4EoIY29dNoBSYB-6nft4-59" value="Scuderia" style="html=1;align=center;fontStyle=0;labelBackgroundColor=none;fontColor=default;whiteSpace=wrap;labelBorderColor=none;verticalAlign=middle;horizontal=1;fontFamily=Helvetica;" parent="1" vertex="1">
          <mxGeometry x="385" y="520" width="100" height="40" as="geometry" />
        </mxCell>
        <mxCell id="4EoIY29dNoBSYB-6nft4-61" value="" style="endArrow=oval;html=1;rounded=0;exitX=0;exitY=0.5;exitDx=0;exitDy=0;endFill=1;labelBackgroundColor=none;fontColor=default;" parent="1" source="4EoIY29dNoBSYB-6nft4-59" edge="1">
          <mxGeometry width="50" height="50" relative="1" as="geometry">
            <mxPoint x="355" y="540" as="sourcePoint" />
            <mxPoint x="365" y="540" as="targetPoint" />
            <Array as="points" />
          </mxGeometry>
        </mxCell>
        <mxCell id="4EoIY29dNoBSYB-6nft4-62" value="Nome" style="text;html=1;align=center;verticalAlign=middle;resizable=0;points=[];autosize=1;strokeColor=none;fillColor=none;labelBackgroundColor=none;" parent="1" vertex="1">
          <mxGeometry x="310" y="525" width="60" height="30" as="geometry" />
        </mxCell>
        <mxCell id="4EoIY29dNoBSYB-6nft4-63" value="" style="endArrow=oval;html=1;rounded=0;endFill=0;labelBackgroundColor=none;fontColor=default;exitX=0.5;exitY=1;exitDx=0;exitDy=0;" parent="1" edge="1">
          <mxGeometry width="50" height="50" relative="1" as="geometry">
            <mxPoint x="385" y="560" as="sourcePoint" />
            <mxPoint x="385" y="580" as="targetPoint" />
            <Array as="points">
              <mxPoint x="385" y="570" />
              <mxPoint x="385" y="580" />
            </Array>
          </mxGeometry>
        </mxCell>
        <mxCell id="4EoIY29dNoBSYB-6nft4-64" value="Paese" style="text;html=1;align=center;verticalAlign=middle;resizable=0;points=[];autosize=1;strokeColor=none;fillColor=none;rotation=0;" parent="1" vertex="1">
          <mxGeometry x="355" y="580" width="60" height="30" as="geometry" />
        </mxCell>
        <mxCell id="4EoIY29dNoBSYB-6nft4-65" value="" style="endArrow=oval;html=1;rounded=0;endFill=0;labelBackgroundColor=none;fontColor=default;exitX=0.5;exitY=1;exitDx=0;exitDy=0;dashed=1;" parent="1" edge="1">
          <mxGeometry width="50" height="50" relative="1" as="geometry">
            <mxPoint x="480" y="560" as="sourcePoint" />
            <mxPoint x="480" y="580" as="targetPoint" />
            <Array as="points">
              <mxPoint x="480" y="570" />
              <mxPoint x="480" y="580" />
            </Array>
          </mxGeometry>
        </mxCell>
        <mxCell id="4EoIY29dNoBSYB-6nft4-66" value="Tot_Finanziamenti_&lt;br&gt;ricevuti" style="text;html=1;align=center;verticalAlign=middle;resizable=0;points=[];autosize=1;strokeColor=none;fillColor=none;rotation=0;" parent="1" vertex="1">
          <mxGeometry x="445" y="575" width="130" height="40" as="geometry" />
        </mxCell>
        <mxCell id="4EoIY29dNoBSYB-6nft4-67" value="Vettura" style="html=1;align=center;fontStyle=0;labelBackgroundColor=none;fontColor=default;whiteSpace=wrap;labelBorderColor=none;verticalAlign=middle;horizontal=1;fontFamily=Helvetica;" parent="1" vertex="1">
          <mxGeometry x="385" y="323" width="100" height="40" as="geometry" />
        </mxCell>
        <mxCell id="4EoIY29dNoBSYB-6nft4-70" value="" style="endArrow=oval;html=1;rounded=0;endFill=1;labelBackgroundColor=none;fontColor=default;" parent="1" edge="1">
          <mxGeometry width="50" height="50" relative="1" as="geometry">
            <mxPoint x="475.16" y="363" as="sourcePoint" />
            <mxPoint x="474.83000000000004" y="383" as="targetPoint" />
            <Array as="points" />
          </mxGeometry>
        </mxCell>
        <mxCell id="4EoIY29dNoBSYB-6nft4-71" value="#Gara" style="text;html=1;align=center;verticalAlign=middle;resizable=0;points=[];autosize=1;strokeColor=none;fillColor=none;labelBackgroundColor=none;" parent="1" vertex="1">
          <mxGeometry x="445" y="378" width="60" height="30" as="geometry" />
        </mxCell>
        <mxCell id="4EoIY29dNoBSYB-6nft4-74" value="Modello" style="text;html=1;align=center;verticalAlign=middle;resizable=0;points=[];autosize=1;strokeColor=none;fillColor=none;" parent="1" vertex="1">
          <mxGeometry x="360" y="378" width="70" height="30" as="geometry" />
        </mxCell>
        <mxCell id="24WfkbDJMfI8mmHEkIdc-41" style="edgeStyle=orthogonalEdgeStyle;rounded=0;orthogonalLoop=1;jettySize=auto;html=1;exitX=1;exitY=0.5;exitDx=0;exitDy=0;endArrow=none;endFill=0;entryX=0.5;entryY=0.917;entryDx=0;entryDy=0;entryPerimeter=0;" parent="1" source="4EoIY29dNoBSYB-6nft4-75" target="24WfkbDJMfI8mmHEkIdc-40" edge="1">
          <mxGeometry relative="1" as="geometry">
            <mxPoint x="220" y="470.0000000000001" as="targetPoint" />
          </mxGeometry>
        </mxCell>
        <mxCell id="4EoIY29dNoBSYB-6nft4-75" value="Componente" style="html=1;align=center;fontStyle=0;labelBackgroundColor=none;fontColor=default;whiteSpace=wrap;labelBorderColor=none;verticalAlign=middle;horizontal=1;fontFamily=Helvetica;" parent="1" vertex="1">
          <mxGeometry x="-10.75" y="480" width="100" height="40" as="geometry" />
        </mxCell>
        <mxCell id="4EoIY29dNoBSYB-6nft4-76" value="" style="endArrow=oval;html=1;rounded=0;exitX=0.5;exitY=0;exitDx=0;exitDy=0;endFill=1;labelBackgroundColor=none;fontColor=default;" parent="1" edge="1">
          <mxGeometry width="50" height="50" relative="1" as="geometry">
            <mxPoint x="71.25000000000011" y="480" as="sourcePoint" />
            <mxPoint x="71.25" y="460" as="targetPoint" />
            <Array as="points">
              <mxPoint x="71.25" y="470" />
            </Array>
          </mxGeometry>
        </mxCell>
        <mxCell id="4EoIY29dNoBSYB-6nft4-77" value="Codice" style="text;html=1;align=center;verticalAlign=middle;resizable=0;points=[];autosize=1;strokeColor=none;fillColor=none;labelBackgroundColor=none;" parent="1" vertex="1">
          <mxGeometry x="41.25" y="435" width="60" height="30" as="geometry" />
        </mxCell>
        <mxCell id="4EoIY29dNoBSYB-6nft4-78" value="" style="endArrow=oval;html=1;rounded=0;exitX=0.5;exitY=0;exitDx=0;exitDy=0;endFill=0;labelBackgroundColor=none;fontColor=default;" parent="1" edge="1">
          <mxGeometry width="50" height="50" relative="1" as="geometry">
            <mxPoint x="11.250000000000114" y="480" as="sourcePoint" />
            <mxPoint x="11.25" y="460" as="targetPoint" />
            <Array as="points">
              <mxPoint x="11.25" y="470" />
            </Array>
          </mxGeometry>
        </mxCell>
        <mxCell id="4EoIY29dNoBSYB-6nft4-79" value="Costo" style="text;html=1;align=center;verticalAlign=middle;resizable=0;points=[];autosize=1;strokeColor=none;fillColor=none;" parent="1" vertex="1">
          <mxGeometry x="-18.75" y="435" width="50" height="30" as="geometry" />
        </mxCell>
        <mxCell id="4EoIY29dNoBSYB-6nft4-80" value="Costruttore" style="html=1;align=center;fontStyle=0;labelBackgroundColor=none;fontColor=default;whiteSpace=wrap;labelBorderColor=none;verticalAlign=middle;horizontal=1;fontFamily=Helvetica;" parent="1" vertex="1">
          <mxGeometry x="-21.25" y="275" width="100" height="40" as="geometry" />
        </mxCell>
        <mxCell id="4EoIY29dNoBSYB-6nft4-81" value="" style="endArrow=oval;html=1;rounded=0;exitX=0.5;exitY=0;exitDx=0;exitDy=0;endFill=0;labelBackgroundColor=none;fontColor=default;" parent="1" edge="1">
          <mxGeometry width="50" height="50" relative="1" as="geometry">
            <mxPoint x="7.500000000000114" y="275" as="sourcePoint" />
            <mxPoint x="7.5" y="235" as="targetPoint" />
            <Array as="points">
              <mxPoint x="7.5" y="265" />
            </Array>
          </mxGeometry>
        </mxCell>
        <mxCell id="4EoIY29dNoBSYB-6nft4-82" value="Nome" style="text;html=1;align=center;verticalAlign=middle;resizable=0;points=[];autosize=1;strokeColor=none;fillColor=none;labelBackgroundColor=none;" parent="1" vertex="1">
          <mxGeometry x="-32.5" y="205" width="60" height="30" as="geometry" />
        </mxCell>
        <mxCell id="4EoIY29dNoBSYB-6nft4-83" value="" style="endArrow=oval;html=1;rounded=0;exitX=0.5;exitY=0;exitDx=0;exitDy=0;endFill=1;labelBackgroundColor=none;fontColor=default;" parent="1" edge="1">
          <mxGeometry width="50" height="50" relative="1" as="geometry">
            <mxPoint x="-20.499999999999886" y="275" as="sourcePoint" />
            <mxPoint x="-20.5" y="255" as="targetPoint" />
            <Array as="points">
              <mxPoint x="-20.5" y="265" />
            </Array>
          </mxGeometry>
        </mxCell>
        <mxCell id="4EoIY29dNoBSYB-6nft4-84" value="Ragione_sociale" style="text;html=1;align=center;verticalAlign=middle;resizable=0;points=[];autosize=1;strokeColor=none;fillColor=none;" parent="1" vertex="1">
          <mxGeometry x="-97.5" y="225" width="110" height="30" as="geometry" />
        </mxCell>
        <mxCell id="4EoIY29dNoBSYB-6nft4-85" value="" style="endArrow=oval;html=1;rounded=0;exitX=0.5;exitY=0;exitDx=0;exitDy=0;endFill=0;labelBackgroundColor=none;fontColor=default;" parent="1" edge="1">
          <mxGeometry width="50" height="50" relative="1" as="geometry">
            <mxPoint x="37.500000000000114" y="275" as="sourcePoint" />
            <mxPoint x="37.5" y="245" as="targetPoint" />
            <Array as="points">
              <mxPoint x="37.5" y="265" />
            </Array>
          </mxGeometry>
        </mxCell>
        <mxCell id="4EoIY29dNoBSYB-6nft4-87" value="Sede&amp;nbsp;" style="text;html=1;align=center;verticalAlign=middle;resizable=0;points=[];autosize=1;strokeColor=none;fillColor=none;labelBackgroundColor=none;" parent="1" vertex="1">
          <mxGeometry x="17.5" y="215" width="50" height="30" as="geometry" />
        </mxCell>
        <mxCell id="4EoIY29dNoBSYB-6nft4-89" value="" style="endArrow=oval;html=1;rounded=0;exitX=0.5;exitY=0;exitDx=0;exitDy=0;endFill=0;labelBackgroundColor=none;fontColor=default;dashed=1;" parent="1" edge="1">
          <mxGeometry width="50" height="50" relative="1" as="geometry">
            <mxPoint x="72.50000000000011" y="275" as="sourcePoint" />
            <mxPoint x="72.5" y="245" as="targetPoint" />
            <Array as="points">
              <mxPoint x="72.5" y="265" />
            </Array>
          </mxGeometry>
        </mxCell>
        <mxCell id="4EoIY29dNoBSYB-6nft4-90" value="#Componenti_&lt;span style=&quot;background-color: initial; text-align: left;&quot;&gt;forniti&lt;/span&gt;" style="text;html=1;align=center;verticalAlign=middle;resizable=0;points=[];autosize=1;strokeColor=none;fillColor=none;labelBackgroundColor=none;" parent="1" vertex="1">
          <mxGeometry x="50" y="215" width="130" height="30" as="geometry" />
        </mxCell>
        <mxCell id="4EoIY29dNoBSYB-6nft4-100" value="" style="shape=flexArrow;endArrow=classic;html=1;rounded=0;fillColor=#050505;" parent="1" edge="1">
          <mxGeometry width="50" height="50" relative="1" as="geometry">
            <mxPoint x="40.960000000000036" y="560" as="sourcePoint" />
            <mxPoint x="40.960000000000036" y="520" as="targetPoint" />
          </mxGeometry>
        </mxCell>
        <mxCell id="4EoIY29dNoBSYB-6nft4-101" value="" style="strokeWidth=1;html=1;shape=mxgraph.flowchart.annotation_1;align=left;pointerEvents=1;direction=south;" parent="1" vertex="1">
          <mxGeometry x="-58.75" y="565" width="200" height="50" as="geometry" />
        </mxCell>
        <mxCell id="4EoIY29dNoBSYB-6nft4-103" value="Telaio" style="html=1;align=center;fontStyle=0;labelBackgroundColor=none;fontColor=default;whiteSpace=wrap;labelBorderColor=none;verticalAlign=middle;horizontal=1;fontFamily=Helvetica;" parent="1" vertex="1">
          <mxGeometry x="-83.75" y="610" width="60" height="40" as="geometry" />
        </mxCell>
        <mxCell id="4EoIY29dNoBSYB-6nft4-104" value="Cambio" style="html=1;align=center;fontStyle=0;labelBackgroundColor=none;fontColor=default;whiteSpace=wrap;labelBorderColor=none;verticalAlign=middle;horizontal=1;fontFamily=Helvetica;" parent="1" vertex="1">
          <mxGeometry x="111.25" y="610" width="60" height="40" as="geometry" />
        </mxCell>
        <mxCell id="4EoIY29dNoBSYB-6nft4-106" value="" style="endArrow=none;html=1;rounded=0;entryX=0;entryY=0.5;entryDx=0;entryDy=0;entryPerimeter=0;" parent="1" target="4EoIY29dNoBSYB-6nft4-101" edge="1">
          <mxGeometry width="50" height="50" relative="1" as="geometry">
            <mxPoint x="41.25" y="610" as="sourcePoint" />
            <mxPoint x="121.25" y="580" as="targetPoint" />
          </mxGeometry>
        </mxCell>
        <mxCell id="4EoIY29dNoBSYB-6nft4-107" value="Motore" style="html=1;align=center;fontStyle=0;labelBackgroundColor=none;fontColor=default;whiteSpace=wrap;labelBorderColor=none;verticalAlign=middle;horizontal=1;fontFamily=Helvetica;" parent="1" vertex="1">
          <mxGeometry x="11.25" y="610" width="60" height="40" as="geometry" />
        </mxCell>
        <mxCell id="4EoIY29dNoBSYB-6nft4-108" value="" style="endArrow=oval;html=1;rounded=0;endFill=0;labelBackgroundColor=none;fontColor=default;exitX=0.5;exitY=1;exitDx=0;exitDy=0;" parent="1" edge="1">
          <mxGeometry width="50" height="50" relative="1" as="geometry">
            <mxPoint x="-48.75" y="650" as="sourcePoint" />
            <mxPoint x="-48.75" y="670" as="targetPoint" />
            <Array as="points">
              <mxPoint x="-48.75" y="660" />
              <mxPoint x="-48.75" y="670" />
            </Array>
          </mxGeometry>
        </mxCell>
        <mxCell id="4EoIY29dNoBSYB-6nft4-110" value="Materiale" style="text;html=1;align=center;verticalAlign=middle;resizable=0;points=[];autosize=1;strokeColor=none;fillColor=none;" parent="1" vertex="1">
          <mxGeometry x="-115" y="663" width="70" height="30" as="geometry" />
        </mxCell>
        <mxCell id="4EoIY29dNoBSYB-6nft4-112" value="" style="endArrow=oval;html=1;rounded=0;endFill=0;labelBackgroundColor=none;fontColor=default;exitX=0.5;exitY=1;exitDx=0;exitDy=0;" parent="1" edge="1">
          <mxGeometry width="50" height="50" relative="1" as="geometry">
            <mxPoint x="-78.75" y="650" as="sourcePoint" />
            <mxPoint x="-78.75" y="670" as="targetPoint" />
            <Array as="points">
              <mxPoint x="-78.75" y="660" />
              <mxPoint x="-78.75" y="670" />
            </Array>
          </mxGeometry>
        </mxCell>
        <mxCell id="4EoIY29dNoBSYB-6nft4-113" value="Peso" style="text;html=1;align=center;verticalAlign=middle;resizable=0;points=[];autosize=1;strokeColor=none;fillColor=none;" parent="1" vertex="1">
          <mxGeometry x="-66.25" y="663" width="50" height="30" as="geometry" />
        </mxCell>
        <mxCell id="4EoIY29dNoBSYB-6nft4-114" value="" style="endArrow=oval;html=1;rounded=0;endFill=0;labelBackgroundColor=none;fontColor=default;exitX=0.5;exitY=1;exitDx=0;exitDy=0;" parent="1" edge="1">
          <mxGeometry width="50" height="50" relative="1" as="geometry">
            <mxPoint x="21.25" y="650" as="sourcePoint" />
            <mxPoint x="21.25" y="670" as="targetPoint" />
            <Array as="points">
              <mxPoint x="21.25" y="660" />
              <mxPoint x="21.25" y="670" />
            </Array>
          </mxGeometry>
        </mxCell>
        <mxCell id="4EoIY29dNoBSYB-6nft4-115" value="Cilindrata" style="text;html=1;align=center;verticalAlign=middle;resizable=0;points=[];autosize=1;strokeColor=none;fillColor=none;" parent="1" vertex="1">
          <mxGeometry x="-8.75" y="663" width="70" height="30" as="geometry" />
        </mxCell>
        <mxCell id="4EoIY29dNoBSYB-6nft4-118" value="" style="endArrow=oval;html=1;rounded=0;endFill=0;labelBackgroundColor=none;fontColor=default;exitX=0.5;exitY=1;exitDx=0;exitDy=0;" parent="1" edge="1">
          <mxGeometry width="50" height="50" relative="1" as="geometry">
            <mxPoint x="65.95999999999998" y="650" as="sourcePoint" />
            <mxPoint x="65.95999999999998" y="670" as="targetPoint" />
            <Array as="points">
              <mxPoint x="65.95999999999998" y="660" />
              <mxPoint x="65.95999999999998" y="670" />
            </Array>
          </mxGeometry>
        </mxCell>
        <mxCell id="4EoIY29dNoBSYB-6nft4-119" value="Tipo" style="text;html=1;align=center;verticalAlign=middle;resizable=0;points=[];autosize=1;strokeColor=none;fillColor=none;" parent="1" vertex="1">
          <mxGeometry x="46.25" y="663" width="50" height="30" as="geometry" />
        </mxCell>
        <mxCell id="4EoIY29dNoBSYB-6nft4-122" value="" style="endArrow=oval;html=1;rounded=0;endFill=0;labelBackgroundColor=none;fontColor=default;" parent="1" edge="1">
          <mxGeometry width="50" height="50" relative="1" as="geometry">
            <mxPoint x="51.25" y="650" as="sourcePoint" />
            <mxPoint x="51.25" y="692" as="targetPoint" />
            <Array as="points">
              <mxPoint x="51.25" y="682" />
              <mxPoint x="51.25" y="692" />
            </Array>
          </mxGeometry>
        </mxCell>
        <mxCell id="4EoIY29dNoBSYB-6nft4-123" value="#Cilindri" style="text;html=1;align=center;verticalAlign=middle;resizable=0;points=[];autosize=1;strokeColor=none;fillColor=none;" parent="1" vertex="1">
          <mxGeometry x="13.75" y="690" width="70" height="30" as="geometry" />
        </mxCell>
        <mxCell id="4EoIY29dNoBSYB-6nft4-127" value="" style="endArrow=oval;html=1;rounded=0;endFill=0;labelBackgroundColor=none;fontColor=default;exitX=0.5;exitY=1;exitDx=0;exitDy=0;" parent="1" edge="1">
          <mxGeometry width="50" height="50" relative="1" as="geometry">
            <mxPoint x="135.96" y="650" as="sourcePoint" />
            <mxPoint x="135.96" y="670" as="targetPoint" />
            <Array as="points">
              <mxPoint x="135.96" y="660" />
              <mxPoint x="135.96" y="670" />
            </Array>
          </mxGeometry>
        </mxCell>
        <mxCell id="4EoIY29dNoBSYB-6nft4-128" value="#Marce" style="text;html=1;align=center;verticalAlign=middle;resizable=0;points=[];autosize=1;strokeColor=none;fillColor=none;" parent="1" vertex="1">
          <mxGeometry x="111.25" y="663" width="60" height="30" as="geometry" />
        </mxCell>
        <mxCell id="4EoIY29dNoBSYB-6nft4-129" value="Gara" style="html=1;align=center;fontStyle=0;labelBackgroundColor=none;fontColor=default;whiteSpace=wrap;labelBorderColor=none;verticalAlign=middle;horizontal=1;fontFamily=Helvetica;" parent="1" vertex="1">
          <mxGeometry x="380" y="160" width="100" height="40" as="geometry" />
        </mxCell>
        <mxCell id="4EoIY29dNoBSYB-6nft4-130" value="" style="endArrow=oval;html=1;rounded=0;exitX=0.5;exitY=0;exitDx=0;exitDy=0;endFill=1;labelBackgroundColor=none;fontColor=default;" parent="1" edge="1">
          <mxGeometry width="50" height="50" relative="1" as="geometry">
            <mxPoint x="450.0000000000001" y="160" as="sourcePoint" />
            <mxPoint x="450" y="140" as="targetPoint" />
            <Array as="points">
              <mxPoint x="450" y="150" />
            </Array>
          </mxGeometry>
        </mxCell>
        <mxCell id="4EoIY29dNoBSYB-6nft4-131" value="Nome" style="text;html=1;align=center;verticalAlign=middle;resizable=0;points=[];autosize=1;strokeColor=none;fillColor=none;labelBackgroundColor=none;" parent="1" vertex="1">
          <mxGeometry x="420" y="110" width="60" height="30" as="geometry" />
        </mxCell>
        <mxCell id="4EoIY29dNoBSYB-6nft4-132" value="" style="endArrow=oval;html=1;rounded=0;exitX=0.5;exitY=0;exitDx=0;exitDy=0;endFill=0;labelBackgroundColor=none;fontColor=default;" parent="1" edge="1">
          <mxGeometry width="50" height="50" relative="1" as="geometry">
            <mxPoint x="400.0000000000001" y="160" as="sourcePoint" />
            <mxPoint x="400" y="140" as="targetPoint" />
            <Array as="points">
              <mxPoint x="400" y="150" />
            </Array>
          </mxGeometry>
        </mxCell>
        <mxCell id="4EoIY29dNoBSYB-6nft4-133" value="Data" style="text;html=1;align=center;verticalAlign=middle;resizable=0;points=[];autosize=1;strokeColor=none;fillColor=none;" parent="1" vertex="1">
          <mxGeometry x="370" y="110" width="50" height="30" as="geometry" />
        </mxCell>
        <mxCell id="4EoIY29dNoBSYB-6nft4-135" value="" style="endArrow=oval;html=1;rounded=0;exitX=1;exitY=0.5;exitDx=0;exitDy=0;endFill=0;labelBackgroundColor=none;fontColor=default;" parent="1" edge="1">
          <mxGeometry width="50" height="50" relative="1" as="geometry">
            <mxPoint x="480" y="165" as="sourcePoint" />
            <mxPoint x="510" y="165" as="targetPoint" />
            <Array as="points" />
          </mxGeometry>
        </mxCell>
        <mxCell id="4EoIY29dNoBSYB-6nft4-136" value="Tipo" style="text;html=1;align=center;verticalAlign=middle;resizable=0;points=[];autosize=1;strokeColor=none;fillColor=none;labelBackgroundColor=none;" parent="1" vertex="1">
          <mxGeometry x="505" y="150" width="50" height="30" as="geometry" />
        </mxCell>
        <mxCell id="4EoIY29dNoBSYB-6nft4-138" value="DurataH" style="text;html=1;align=center;verticalAlign=middle;resizable=0;points=[];autosize=1;strokeColor=none;fillColor=none;labelBackgroundColor=none;" parent="1" vertex="1">
          <mxGeometry x="505" y="170" width="70" height="30" as="geometry" />
        </mxCell>
        <mxCell id="24WfkbDJMfI8mmHEkIdc-9" style="edgeStyle=orthogonalEdgeStyle;rounded=0;orthogonalLoop=1;jettySize=auto;html=1;exitX=1;exitY=0.5;exitDx=0;exitDy=0;entryX=0;entryY=0.5;entryDx=0;entryDy=0;endArrow=none;endFill=0;" parent="1" source="4EoIY29dNoBSYB-6nft4-147" target="4EoIY29dNoBSYB-6nft4-157" edge="1">
          <mxGeometry relative="1" as="geometry" />
        </mxCell>
        <mxCell id="4EoIY29dNoBSYB-6nft4-147" value="Circuito" style="html=1;align=center;fontStyle=0;labelBackgroundColor=none;fontColor=default;whiteSpace=wrap;labelBorderColor=none;verticalAlign=middle;horizontal=1;fontFamily=Helvetica;" parent="1" vertex="1">
          <mxGeometry x="-30" y="160" width="100" height="40" as="geometry" />
        </mxCell>
        <mxCell id="4EoIY29dNoBSYB-6nft4-148" value="" style="endArrow=oval;html=1;rounded=0;exitX=0.5;exitY=0;exitDx=0;exitDy=0;endFill=1;labelBackgroundColor=none;fontColor=default;" parent="1" edge="1">
          <mxGeometry width="50" height="50" relative="1" as="geometry">
            <mxPoint x="40.000000000000114" y="160" as="sourcePoint" />
            <mxPoint x="40" y="140" as="targetPoint" />
            <Array as="points">
              <mxPoint x="40" y="150" />
            </Array>
          </mxGeometry>
        </mxCell>
        <mxCell id="4EoIY29dNoBSYB-6nft4-149" value="" style="endArrow=oval;html=1;rounded=0;exitX=0.5;exitY=0;exitDx=0;exitDy=0;endFill=0;labelBackgroundColor=none;fontColor=default;" parent="1" edge="1">
          <mxGeometry width="50" height="50" relative="1" as="geometry">
            <mxPoint x="-9.999999999999886" y="160" as="sourcePoint" />
            <mxPoint x="-10" y="140" as="targetPoint" />
            <Array as="points">
              <mxPoint x="-10" y="150" />
            </Array>
          </mxGeometry>
        </mxCell>
        <mxCell id="4EoIY29dNoBSYB-6nft4-151" value="Lunghezza" style="text;html=1;align=center;verticalAlign=middle;resizable=0;points=[];autosize=1;strokeColor=none;fillColor=none;labelBackgroundColor=none;" parent="1" vertex="1">
          <mxGeometry x="-125" y="170" width="80" height="30" as="geometry" />
        </mxCell>
        <mxCell id="4EoIY29dNoBSYB-6nft4-152" value="#Curve" style="text;html=1;align=center;verticalAlign=middle;resizable=0;points=[];autosize=1;strokeColor=none;fillColor=none;labelBackgroundColor=none;" parent="1" vertex="1">
          <mxGeometry x="-115" y="150" width="60" height="30" as="geometry" />
        </mxCell>
        <mxCell id="4EoIY29dNoBSYB-6nft4-153" value="" style="endArrow=oval;html=1;rounded=0;exitX=0;exitY=0.5;exitDx=0;exitDy=0;endFill=0;labelBackgroundColor=none;fontColor=default;entryX=1;entryY=0.5;entryDx=0;entryDy=0;entryPerimeter=0;" parent="1" target="4EoIY29dNoBSYB-6nft4-152" edge="1">
          <mxGeometry width="50" height="50" relative="1" as="geometry">
            <mxPoint x="-30" y="165" as="sourcePoint" />
            <mxPoint x="-40" y="184.73" as="targetPoint" />
            <Array as="points">
              <mxPoint x="-40" y="165" />
            </Array>
          </mxGeometry>
        </mxCell>
        <mxCell id="4EoIY29dNoBSYB-6nft4-154" value="Nome" style="text;html=1;align=center;verticalAlign=middle;resizable=0;points=[];autosize=1;strokeColor=none;fillColor=none;" parent="1" vertex="1">
          <mxGeometry x="10" y="115" width="60" height="30" as="geometry" />
        </mxCell>
        <mxCell id="4EoIY29dNoBSYB-6nft4-155" value="Paese" style="text;html=1;align=center;verticalAlign=middle;resizable=0;points=[];autosize=1;strokeColor=none;fillColor=none;" parent="1" vertex="1">
          <mxGeometry x="-40" y="110" width="60" height="30" as="geometry" />
        </mxCell>
        <mxCell id="24WfkbDJMfI8mmHEkIdc-6" style="edgeStyle=orthogonalEdgeStyle;rounded=0;orthogonalLoop=1;jettySize=auto;html=1;exitX=1;exitY=0.5;exitDx=0;exitDy=0;entryX=0;entryY=0.5;entryDx=0;entryDy=0;endArrow=none;endFill=0;" parent="1" source="4EoIY29dNoBSYB-6nft4-157" target="4EoIY29dNoBSYB-6nft4-129" edge="1">
          <mxGeometry relative="1" as="geometry" />
        </mxCell>
        <mxCell id="4EoIY29dNoBSYB-6nft4-157" value="Si svolge" style="shape=rhombus;perimeter=rhombusPerimeter;whiteSpace=wrap;html=1;align=center;" parent="1" vertex="1">
          <mxGeometry x="160" y="150" width="120" height="60" as="geometry" />
        </mxCell>
        <mxCell id="24WfkbDJMfI8mmHEkIdc-4" value="" style="endArrow=oval;html=1;rounded=0;endFill=0;" parent="1" edge="1">
          <mxGeometry width="50" height="50" relative="1" as="geometry">
            <mxPoint x="480" y="184.8" as="sourcePoint" />
            <mxPoint x="510" y="185" as="targetPoint" />
          </mxGeometry>
        </mxCell>
        <mxCell id="24WfkbDJMfI8mmHEkIdc-8" value="" style="endArrow=oval;html=1;rounded=0;exitX=0;exitY=0.5;exitDx=0;exitDy=0;endFill=0;labelBackgroundColor=none;fontColor=default;entryX=1;entryY=0.5;entryDx=0;entryDy=0;entryPerimeter=0;" parent="1" edge="1">
          <mxGeometry width="50" height="50" relative="1" as="geometry">
            <mxPoint x="-30" y="184.86" as="sourcePoint" />
            <mxPoint x="-50" y="184.86" as="targetPoint" />
            <Array as="points">
              <mxPoint x="-40" y="184.86" />
            </Array>
          </mxGeometry>
        </mxCell>
        <mxCell id="24WfkbDJMfI8mmHEkIdc-10" value="" style="endArrow=oval;html=1;rounded=0;endFill=0;labelBackgroundColor=none;fontColor=default;" parent="1" edge="1">
          <mxGeometry width="50" height="50" relative="1" as="geometry">
            <mxPoint x="394.83" y="363" as="sourcePoint" />
            <mxPoint x="395" y="383" as="targetPoint" />
            <Array as="points">
              <mxPoint x="394.83" y="372.66999999999996" />
            </Array>
          </mxGeometry>
        </mxCell>
        <mxCell id="24WfkbDJMfI8mmHEkIdc-14" style="edgeStyle=orthogonalEdgeStyle;rounded=0;orthogonalLoop=1;jettySize=auto;html=1;exitX=0.5;exitY=1;exitDx=0;exitDy=0;entryX=0.5;entryY=0;entryDx=0;entryDy=0;endArrow=none;endFill=0;" parent="1" source="24WfkbDJMfI8mmHEkIdc-12" target="4EoIY29dNoBSYB-6nft4-67" edge="1">
          <mxGeometry relative="1" as="geometry" />
        </mxCell>
        <mxCell id="24WfkbDJMfI8mmHEkIdc-12" value="Partecipa" style="shape=rhombus;perimeter=rhombusPerimeter;whiteSpace=wrap;html=1;align=center;" parent="1" vertex="1">
          <mxGeometry x="375" y="230" width="120" height="60" as="geometry" />
        </mxCell>
        <mxCell id="24WfkbDJMfI8mmHEkIdc-13" style="edgeStyle=orthogonalEdgeStyle;rounded=0;orthogonalLoop=1;jettySize=auto;html=1;exitX=0.5;exitY=0;exitDx=0;exitDy=0;entryX=0.5;entryY=1;entryDx=0;entryDy=0;endArrow=none;endFill=0;" parent="1" edge="1">
          <mxGeometry relative="1" as="geometry">
            <mxPoint x="439" y="231" as="sourcePoint" />
            <mxPoint x="434" y="201" as="targetPoint" />
          </mxGeometry>
        </mxCell>
        <mxCell id="24WfkbDJMfI8mmHEkIdc-16" value="" style="endArrow=oval;html=1;rounded=0;exitX=0.125;exitY=0.367;exitDx=0;exitDy=0;exitPerimeter=0;endFill=0;" parent="1" source="24WfkbDJMfI8mmHEkIdc-12" edge="1">
          <mxGeometry width="50" height="50" relative="1" as="geometry">
            <mxPoint x="200" y="300" as="sourcePoint" />
            <mxPoint x="370" y="240" as="targetPoint" />
          </mxGeometry>
        </mxCell>
        <mxCell id="24WfkbDJMfI8mmHEkIdc-18" value="Punti" style="text;html=1;align=center;verticalAlign=middle;resizable=0;points=[];autosize=1;strokeColor=none;fillColor=none;labelBackgroundColor=none;" parent="1" vertex="1">
          <mxGeometry x="325" y="220" width="50" height="30" as="geometry" />
        </mxCell>
        <mxCell id="24WfkbDJMfI8mmHEkIdc-19" value="" style="endArrow=oval;html=1;rounded=0;exitX=0.806;exitY=0.319;exitDx=0;exitDy=0;exitPerimeter=0;endFill=0;" parent="1" source="24WfkbDJMfI8mmHEkIdc-12" edge="1">
          <mxGeometry width="50" height="50" relative="1" as="geometry">
            <mxPoint x="535" y="250" as="sourcePoint" />
            <mxPoint x="500" y="240" as="targetPoint" />
          </mxGeometry>
        </mxCell>
        <mxCell id="24WfkbDJMfI8mmHEkIdc-20" value="Motivo_Ritiro" style="text;html=1;align=center;verticalAlign=middle;resizable=0;points=[];autosize=1;strokeColor=none;fillColor=none;labelBackgroundColor=none;" parent="1" vertex="1">
          <mxGeometry x="474" y="215" width="90" height="30" as="geometry" />
        </mxCell>
        <mxCell id="24WfkbDJMfI8mmHEkIdc-23" style="edgeStyle=orthogonalEdgeStyle;rounded=0;orthogonalLoop=1;jettySize=auto;html=1;exitX=1;exitY=0.5;exitDx=0;exitDy=0;entryX=0;entryY=0.25;entryDx=0;entryDy=0;endArrow=none;endFill=0;" parent="1" source="24WfkbDJMfI8mmHEkIdc-21" target="4EoIY29dNoBSYB-6nft4-5" edge="1">
          <mxGeometry relative="1" as="geometry" />
        </mxCell>
        <mxCell id="24WfkbDJMfI8mmHEkIdc-21" value="Guida" style="shape=rhombus;perimeter=rhombusPerimeter;whiteSpace=wrap;html=1;align=center;" parent="1" vertex="1">
          <mxGeometry x="520" y="308" width="120" height="60" as="geometry" />
        </mxCell>
        <mxCell id="24WfkbDJMfI8mmHEkIdc-22" style="edgeStyle=orthogonalEdgeStyle;rounded=0;orthogonalLoop=1;jettySize=auto;html=1;exitX=1;exitY=0.5;exitDx=0;exitDy=0;endArrow=none;endFill=0;entryX=0;entryY=0.5;entryDx=0;entryDy=0;" parent="1" target="24WfkbDJMfI8mmHEkIdc-21" edge="1">
          <mxGeometry relative="1" as="geometry">
            <mxPoint x="485" y="340.17" as="sourcePoint" />
            <mxPoint x="520" y="340" as="targetPoint" />
            <Array as="points">
              <mxPoint x="520" y="340" />
            </Array>
          </mxGeometry>
        </mxCell>
        <mxCell id="24WfkbDJMfI8mmHEkIdc-25" value="Composto" style="shape=rhombus;perimeter=rhombusPerimeter;whiteSpace=wrap;html=1;align=center;" parent="1" vertex="1">
          <mxGeometry x="830" y="318" width="120" height="60" as="geometry" />
        </mxCell>
        <mxCell id="24WfkbDJMfI8mmHEkIdc-27" style="edgeStyle=orthogonalEdgeStyle;rounded=0;orthogonalLoop=1;jettySize=auto;html=1;exitX=1;exitY=0.5;exitDx=0;exitDy=0;entryX=0.006;entryY=0.427;entryDx=0;entryDy=0;entryPerimeter=0;endArrow=none;endFill=0;" parent="1" source="24WfkbDJMfI8mmHEkIdc-25" target="4EoIY29dNoBSYB-6nft4-25" edge="1">
          <mxGeometry relative="1" as="geometry" />
        </mxCell>
        <mxCell id="24WfkbDJMfI8mmHEkIdc-35" style="edgeStyle=orthogonalEdgeStyle;rounded=0;orthogonalLoop=1;jettySize=auto;html=1;exitX=0.5;exitY=1;exitDx=0;exitDy=0;entryX=0.5;entryY=0;entryDx=0;entryDy=0;endArrow=none;endFill=0;" parent="1" source="24WfkbDJMfI8mmHEkIdc-28" target="4EoIY29dNoBSYB-6nft4-59" edge="1">
          <mxGeometry relative="1" as="geometry" />
        </mxCell>
        <mxCell id="24WfkbDJMfI8mmHEkIdc-36" style="edgeStyle=orthogonalEdgeStyle;rounded=0;orthogonalLoop=1;jettySize=auto;html=1;exitX=0.5;exitY=0;exitDx=0;exitDy=0;entryX=0.5;entryY=1;entryDx=0;entryDy=0;endArrow=none;endFill=0;" parent="1" source="24WfkbDJMfI8mmHEkIdc-28" target="4EoIY29dNoBSYB-6nft4-67" edge="1">
          <mxGeometry relative="1" as="geometry" />
        </mxCell>
        <mxCell id="24WfkbDJMfI8mmHEkIdc-28" value="Gestisce" style="shape=rhombus;perimeter=rhombusPerimeter;whiteSpace=wrap;html=1;align=center;" parent="1" vertex="1">
          <mxGeometry x="375" y="425" width="120" height="60" as="geometry" />
        </mxCell>
        <mxCell id="24WfkbDJMfI8mmHEkIdc-31" value="" style="endArrow=oval;html=1;rounded=0;exitX=0.125;exitY=0.367;exitDx=0;exitDy=0;exitPerimeter=0;endFill=0;" parent="1" edge="1">
          <mxGeometry width="50" height="50" relative="1" as="geometry">
            <mxPoint x="385" y="451" as="sourcePoint" />
            <mxPoint x="365" y="439" as="targetPoint" />
          </mxGeometry>
        </mxCell>
        <mxCell id="24WfkbDJMfI8mmHEkIdc-32" value="Data_&lt;br&gt;Acquisto" style="text;html=1;align=center;verticalAlign=middle;resizable=0;points=[];autosize=1;strokeColor=none;fillColor=none;labelBackgroundColor=none;fontSize=9;" parent="1" vertex="1">
          <mxGeometry x="310" y="415" width="60" height="40" as="geometry" />
        </mxCell>
        <mxCell id="24WfkbDJMfI8mmHEkIdc-33" value="" style="endArrow=oval;html=1;rounded=0;exitX=0.125;exitY=0.367;exitDx=0;exitDy=0;exitPerimeter=0;endFill=0;" parent="1" edge="1">
          <mxGeometry width="50" height="50" relative="1" as="geometry">
            <mxPoint x="491" y="453" as="sourcePoint" />
            <mxPoint x="511" y="438" as="targetPoint" />
          </mxGeometry>
        </mxCell>
        <mxCell id="24WfkbDJMfI8mmHEkIdc-34" value="Prezzo" style="text;html=1;align=center;verticalAlign=middle;resizable=0;points=[];autosize=1;strokeColor=none;fillColor=none;labelBackgroundColor=none;" parent="1" vertex="1">
          <mxGeometry x="504" y="415" width="60" height="30" as="geometry" />
        </mxCell>
        <mxCell id="24WfkbDJMfI8mmHEkIdc-39" style="edgeStyle=orthogonalEdgeStyle;rounded=0;orthogonalLoop=1;jettySize=auto;html=1;exitX=0.5;exitY=1;exitDx=0;exitDy=0;entryX=0.5;entryY=0;entryDx=0;entryDy=0;endArrow=none;endFill=0;" parent="1" source="24WfkbDJMfI8mmHEkIdc-37" target="4EoIY29dNoBSYB-6nft4-75" edge="1">
          <mxGeometry relative="1" as="geometry" />
        </mxCell>
        <mxCell id="24WfkbDJMfI8mmHEkIdc-37" value="Costruisce" style="shape=rhombus;perimeter=rhombusPerimeter;whiteSpace=wrap;html=1;align=center;" parent="1" vertex="1">
          <mxGeometry x="-21.25" y="370" width="120" height="60" as="geometry" />
        </mxCell>
        <mxCell id="24WfkbDJMfI8mmHEkIdc-38" style="edgeStyle=orthogonalEdgeStyle;rounded=0;orthogonalLoop=1;jettySize=auto;html=1;exitX=0.5;exitY=0;exitDx=0;exitDy=0;entryX=0.597;entryY=1;entryDx=0;entryDy=0;entryPerimeter=0;endArrow=none;endFill=0;" parent="1" source="24WfkbDJMfI8mmHEkIdc-37" target="4EoIY29dNoBSYB-6nft4-80" edge="1">
          <mxGeometry relative="1" as="geometry">
            <mxPoint x="37.5" y="325" as="sourcePoint" />
          </mxGeometry>
        </mxCell>
        <mxCell id="24WfkbDJMfI8mmHEkIdc-42" style="edgeStyle=orthogonalEdgeStyle;rounded=0;orthogonalLoop=1;jettySize=auto;html=1;exitX=0.5;exitY=0;exitDx=0;exitDy=0;entryX=0;entryY=0.5;entryDx=0;entryDy=0;endArrow=none;endFill=0;" parent="1" source="24WfkbDJMfI8mmHEkIdc-40" target="4EoIY29dNoBSYB-6nft4-67" edge="1">
          <mxGeometry relative="1" as="geometry" />
        </mxCell>
        <mxCell id="24WfkbDJMfI8mmHEkIdc-40" value="Montato" style="shape=rhombus;perimeter=rhombusPerimeter;whiteSpace=wrap;html=1;align=center;" parent="1" vertex="1">
          <mxGeometry x="160" y="405" width="120" height="60" as="geometry" />
        </mxCell>
        <mxCell id="24WfkbDJMfI8mmHEkIdc-43" value="" style="endArrow=oval;html=1;rounded=0;exitX=0.125;exitY=0.367;exitDx=0;exitDy=0;exitPerimeter=0;endFill=0;" parent="1" edge="1">
          <mxGeometry width="50" height="50" relative="1" as="geometry">
            <mxPoint x="195" y="420" as="sourcePoint" />
            <mxPoint x="175" y="408" as="targetPoint" />
          </mxGeometry>
        </mxCell>
        <mxCell id="24WfkbDJMfI8mmHEkIdc-44" value="Data" style="text;html=1;align=center;verticalAlign=middle;resizable=0;points=[];autosize=1;strokeColor=none;fillColor=none;labelBackgroundColor=none;" parent="1" vertex="1">
          <mxGeometry x="130" y="388" width="50" height="30" as="geometry" />
        </mxCell>
        <mxCell id="E5ixjJf9oxTP6WnFrqkC-4" style="edgeStyle=orthogonalEdgeStyle;rounded=0;orthogonalLoop=1;jettySize=auto;html=1;exitX=0;exitY=0.5;exitDx=0;exitDy=0;entryX=1;entryY=0.5;entryDx=0;entryDy=0;endArrow=none;endFill=0;" parent="1" source="E5ixjJf9oxTP6WnFrqkC-2" target="4EoIY29dNoBSYB-6nft4-59" edge="1">
          <mxGeometry relative="1" as="geometry" />
        </mxCell>
        <mxCell id="E5ixjJf9oxTP6WnFrqkC-2" value="Finanzia" style="shape=rhombus;perimeter=rhombusPerimeter;whiteSpace=wrap;html=1;align=center;" parent="1" vertex="1">
          <mxGeometry x="700" y="555" width="120" height="60" as="geometry" />
        </mxCell>
        <mxCell id="E5ixjJf9oxTP6WnFrqkC-5" value="" style="endArrow=oval;html=1;rounded=0;exitX=0.125;exitY=0.367;exitDx=0;exitDy=0;exitPerimeter=0;endFill=0;" parent="1" edge="1">
          <mxGeometry width="50" height="50" relative="1" as="geometry">
            <mxPoint x="780" y="565" as="sourcePoint" />
            <mxPoint x="800" y="550" as="targetPoint" />
          </mxGeometry>
        </mxCell>
        <mxCell id="E5ixjJf9oxTP6WnFrqkC-6" value="Data" style="text;html=1;align=center;verticalAlign=middle;resizable=0;points=[];autosize=1;strokeColor=none;fillColor=none;labelBackgroundColor=none;" parent="1" vertex="1">
          <mxGeometry x="795" y="530" width="50" height="30" as="geometry" />
        </mxCell>
        <mxCell id="E5ixjJf9oxTP6WnFrqkC-7" value="" style="endArrow=oval;html=1;rounded=0;exitX=0;exitY=0;exitDx=0;exitDy=0;endFill=0;" parent="1" source="E5ixjJf9oxTP6WnFrqkC-2" edge="1">
          <mxGeometry width="50" height="50" relative="1" as="geometry">
            <mxPoint x="720" y="565" as="sourcePoint" />
            <mxPoint x="710" y="550" as="targetPoint" />
          </mxGeometry>
        </mxCell>
        <mxCell id="E5ixjJf9oxTP6WnFrqkC-8" value="Ammontare" style="text;html=1;align=center;verticalAlign=middle;resizable=0;points=[];autosize=1;strokeColor=none;fillColor=none;labelBackgroundColor=none;" parent="1" vertex="1">
          <mxGeometry x="655" y="525" width="90" height="30" as="geometry" />
        </mxCell>
        <mxCell id="DFJkzAto43T6tOax5DAH-1" value="(1,1)" style="text;html=1;align=center;verticalAlign=middle;resizable=0;points=[];autosize=1;strokeColor=none;fillColor=none;" parent="1" vertex="1">
          <mxGeometry x="325" y="150" width="50" height="30" as="geometry" />
        </mxCell>
        <mxCell id="DFJkzAto43T6tOax5DAH-2" value="N" style="text;html=1;align=center;verticalAlign=middle;resizable=0;points=[];autosize=1;strokeColor=none;fillColor=none;fontColor=#ff0000;" parent="1" vertex="1">
          <mxGeometry x="280" y="180" width="30" height="30" as="geometry" />
        </mxCell>
        <mxCell id="DFJkzAto43T6tOax5DAH-3" value="1" style="text;html=1;align=center;verticalAlign=middle;resizable=0;points=[];autosize=1;strokeColor=none;fillColor=none;fontColor=#ff0000;" parent="1" vertex="1">
          <mxGeometry x="130" y="180" width="30" height="30" as="geometry" />
        </mxCell>
        <mxCell id="DFJkzAto43T6tOax5DAH-4" value="(0,n)" style="text;html=1;align=center;verticalAlign=middle;resizable=0;points=[];autosize=1;strokeColor=none;fillColor=none;" parent="1" vertex="1">
          <mxGeometry x="86.25" y="150" width="50" height="30" as="geometry" />
        </mxCell>
        <mxCell id="DFJkzAto43T6tOax5DAH-5" value="(0,1)" style="text;html=1;align=center;verticalAlign=middle;resizable=0;points=[];autosize=1;strokeColor=none;fillColor=none;fontSize=7;" parent="1" vertex="1">
          <mxGeometry x="535" y="230" width="40" height="20" as="geometry" />
        </mxCell>
        <mxCell id="DFJkzAto43T6tOax5DAH-6" value="N" style="text;html=1;align=center;verticalAlign=middle;resizable=0;points=[];autosize=1;strokeColor=none;fillColor=none;fontColor=#ff0000;" parent="1" vertex="1">
          <mxGeometry x="430" y="210" width="30" height="30" as="geometry" />
        </mxCell>
        <mxCell id="DFJkzAto43T6tOax5DAH-7" value="M" style="text;html=1;align=center;verticalAlign=middle;resizable=0;points=[];autosize=1;strokeColor=none;fillColor=none;fontColor=#ff0000;" parent="1" vertex="1">
          <mxGeometry x="415" y="280" width="30" height="30" as="geometry" />
        </mxCell>
        <mxCell id="DFJkzAto43T6tOax5DAH-8" value="(0,n)" style="text;html=1;align=center;verticalAlign=middle;resizable=0;points=[];autosize=1;strokeColor=none;fillColor=none;" parent="1" vertex="1">
          <mxGeometry x="430" y="300" width="50" height="30" as="geometry" />
        </mxCell>
        <mxCell id="DFJkzAto43T6tOax5DAH-9" value="(1,n)" style="text;html=1;align=center;verticalAlign=middle;resizable=0;points=[];autosize=1;strokeColor=none;fillColor=none;" parent="1" vertex="1">
          <mxGeometry x="445" y="195" width="50" height="30" as="geometry" />
        </mxCell>
        <mxCell id="DFJkzAto43T6tOax5DAH-10" value="1" style="text;html=1;align=center;verticalAlign=middle;resizable=0;points=[];autosize=1;strokeColor=none;fillColor=none;fontColor=#ff0000;" parent="1" vertex="1">
          <mxGeometry x="430" y="473" width="30" height="30" as="geometry" />
        </mxCell>
        <mxCell id="DFJkzAto43T6tOax5DAH-11" value="N" style="text;html=1;align=center;verticalAlign=middle;resizable=0;points=[];autosize=1;strokeColor=none;fillColor=none;fontColor=#ff0000;" parent="1" vertex="1">
          <mxGeometry x="430" y="400" width="30" height="30" as="geometry" />
        </mxCell>
        <mxCell id="DFJkzAto43T6tOax5DAH-12" value="(1,n)" style="text;html=1;align=center;verticalAlign=middle;resizable=0;points=[];autosize=1;strokeColor=none;fillColor=none;" parent="1" vertex="1">
          <mxGeometry x="390" y="495" width="50" height="30" as="geometry" />
        </mxCell>
        <mxCell id="DFJkzAto43T6tOax5DAH-13" value="(1,1)" style="text;html=1;align=center;verticalAlign=middle;resizable=0;points=[];autosize=1;strokeColor=none;fillColor=none;" parent="1" vertex="1">
          <mxGeometry x="390" y="395" width="50" height="30" as="geometry" />
        </mxCell>
        <mxCell id="DFJkzAto43T6tOax5DAH-14" value="1" style="text;html=1;align=center;verticalAlign=middle;resizable=0;points=[];autosize=1;strokeColor=none;fillColor=none;fontColor=#ff0000;" parent="1" vertex="1">
          <mxGeometry x="625" y="310" width="30" height="30" as="geometry" />
        </mxCell>
        <mxCell id="DFJkzAto43T6tOax5DAH-15" value="N" style="text;html=1;align=center;verticalAlign=middle;resizable=0;points=[];autosize=1;strokeColor=none;fillColor=none;fontColor=#ff0000;" parent="1" vertex="1">
          <mxGeometry x="500" y="310" width="30" height="30" as="geometry" />
        </mxCell>
        <mxCell id="DFJkzAto43T6tOax5DAH-16" value="(0,n)" style="text;html=1;align=center;verticalAlign=middle;resizable=0;points=[];autosize=1;strokeColor=none;fillColor=none;" parent="1" vertex="1">
          <mxGeometry x="650" y="335" width="50" height="30" as="geometry" />
        </mxCell>
        <mxCell id="DFJkzAto43T6tOax5DAH-17" value="(0,1)" style="text;html=1;align=center;verticalAlign=middle;resizable=0;points=[];autosize=1;strokeColor=none;fillColor=none;" parent="1" vertex="1">
          <mxGeometry x="480" y="333" width="50" height="30" as="geometry" />
        </mxCell>
        <mxCell id="DFJkzAto43T6tOax5DAH-18" value="1" style="text;html=1;align=center;verticalAlign=middle;resizable=0;points=[];autosize=1;strokeColor=none;fillColor=none;fontColor=#ff0000;" parent="1" vertex="1">
          <mxGeometry x="820" y="325" width="30" height="30" as="geometry" />
        </mxCell>
        <mxCell id="DFJkzAto43T6tOax5DAH-19" value="N" style="text;html=1;align=center;verticalAlign=middle;resizable=0;points=[];autosize=1;strokeColor=none;fillColor=none;fontColor=#ff0000;" parent="1" vertex="1">
          <mxGeometry x="940" y="325" width="30" height="30" as="geometry" />
        </mxCell>
        <mxCell id="DFJkzAto43T6tOax5DAH-20" value="(0,1)" style="text;html=1;align=center;verticalAlign=middle;resizable=0;points=[];autosize=1;strokeColor=none;fillColor=none;" parent="1" vertex="1">
          <mxGeometry x="965" y="340" width="50" height="30" as="geometry" />
        </mxCell>
        <mxCell id="DFJkzAto43T6tOax5DAH-21" value="(1,n)" style="text;html=1;align=center;verticalAlign=middle;resizable=0;points=[];autosize=1;strokeColor=none;fillColor=none;" parent="1" vertex="1">
          <mxGeometry x="780" y="340" width="50" height="30" as="geometry" />
        </mxCell>
        <mxCell id="DFJkzAto43T6tOax5DAH-22" value="(t,e)" style="text;html=1;align=center;verticalAlign=middle;resizable=0;points=[];autosize=1;strokeColor=none;fillColor=none;" parent="1" vertex="1">
          <mxGeometry x="1050" y="385" width="40" height="30" as="geometry" />
        </mxCell>
        <mxCell id="DFJkzAto43T6tOax5DAH-23" value="N" style="text;html=1;align=center;verticalAlign=middle;resizable=0;points=[];autosize=1;strokeColor=none;fillColor=none;fontColor=#ff0000;" parent="1" vertex="1">
          <mxGeometry x="805" y="590" width="30" height="30" as="geometry" />
        </mxCell>
        <mxCell id="DFJkzAto43T6tOax5DAH-24" value="N" style="text;html=1;align=center;verticalAlign=middle;resizable=0;points=[];autosize=1;strokeColor=none;fillColor=none;fontColor=#ff0000;" parent="1" vertex="1">
          <mxGeometry x="680" y="585" width="30" height="30" as="geometry" />
        </mxCell>
        <mxCell id="DFJkzAto43T6tOax5DAH-25" value="(1,n)" style="text;html=1;align=center;verticalAlign=middle;resizable=0;points=[];autosize=1;strokeColor=none;fillColor=none;" parent="1" vertex="1">
          <mxGeometry x="1020" y="560" width="50" height="30" as="geometry" />
        </mxCell>
        <mxCell id="DFJkzAto43T6tOax5DAH-26" value="(0,n)" style="text;html=1;align=center;verticalAlign=middle;resizable=0;points=[];autosize=1;strokeColor=none;fillColor=none;" parent="1" vertex="1">
          <mxGeometry x="480" y="510" width="50" height="30" as="geometry" />
        </mxCell>
        <mxCell id="DFJkzAto43T6tOax5DAH-27" value="(t,e)" style="text;html=1;align=center;verticalAlign=middle;resizable=0;points=[];autosize=1;strokeColor=none;fillColor=none;" parent="1" vertex="1">
          <mxGeometry x="38.75" y="540" width="40" height="30" as="geometry" />
        </mxCell>
        <mxCell id="DFJkzAto43T6tOax5DAH-28" value="1" style="text;html=1;align=center;verticalAlign=middle;resizable=0;points=[];autosize=1;strokeColor=none;fillColor=none;fontColor=#ff0000;" parent="1" vertex="1">
          <mxGeometry x="33.75" y="348" width="30" height="30" as="geometry" />
        </mxCell>
        <mxCell id="DFJkzAto43T6tOax5DAH-30" value="N" style="text;html=1;align=center;verticalAlign=middle;resizable=0;points=[];autosize=1;strokeColor=none;fillColor=none;fontColor=#ff0000;" parent="1" vertex="1">
          <mxGeometry x="31.25" y="420" width="30" height="30" as="geometry" />
        </mxCell>
        <mxCell id="DFJkzAto43T6tOax5DAH-31" value="SSID" style="text;html=1;align=center;verticalAlign=middle;resizable=0;points=[];autosize=1;strokeColor=none;fillColor=none;" parent="1" vertex="1">
          <mxGeometry x="985" y="278" width="50" height="30" as="geometry" />
        </mxCell>
        <mxCell id="DFJkzAto43T6tOax5DAH-32" value="(0,n)" style="text;html=1;align=center;verticalAlign=middle;resizable=0;points=[];autosize=1;strokeColor=none;fillColor=none;" parent="1" vertex="1">
          <mxGeometry x="-5" y="308" width="50" height="30" as="geometry" />
        </mxCell>
        <mxCell id="DFJkzAto43T6tOax5DAH-33" value="(1,1)" style="text;html=1;align=center;verticalAlign=middle;resizable=0;points=[];autosize=1;strokeColor=none;fillColor=none;" parent="1" vertex="1">
          <mxGeometry x="61.25" y="414" width="50" height="30" as="geometry" />
        </mxCell>
        <mxCell id="DFJkzAto43T6tOax5DAH-34" value="N" style="text;html=1;align=center;verticalAlign=middle;resizable=0;points=[];autosize=1;strokeColor=none;fillColor=none;fontColor=#ff0000;" parent="1" vertex="1">
          <mxGeometry x="200" y="460" width="30" height="30" as="geometry" />
        </mxCell>
        <mxCell id="DFJkzAto43T6tOax5DAH-35" value="1" style="text;html=1;align=center;verticalAlign=middle;resizable=0;points=[];autosize=1;strokeColor=none;fillColor=none;fontColor=#ff0000;" parent="1" vertex="1">
          <mxGeometry x="210" y="380" width="30" height="30" as="geometry" />
        </mxCell>
        <mxCell id="DFJkzAto43T6tOax5DAH-36" value="(1,n)" style="text;html=1;align=center;verticalAlign=middle;resizable=0;points=[];autosize=1;strokeColor=none;fillColor=none;" parent="1" vertex="1">
          <mxGeometry x="340" y="338" width="50" height="30" as="geometry" />
        </mxCell>
        <mxCell id="DFJkzAto43T6tOax5DAH-37" value="(0,1)" style="text;html=1;align=center;verticalAlign=middle;resizable=0;points=[];autosize=1;strokeColor=none;fillColor=none;" parent="1" vertex="1">
          <mxGeometry x="86.25" y="473" width="50" height="30" as="geometry" />
        </mxCell>
        <mxCell id="d1SDgLnMbTXoz2OvKtmw-1" value="" style="endArrow=oval;html=1;rounded=0;endFill=0;" parent="1" source="24WfkbDJMfI8mmHEkIdc-12" edge="1">
          <mxGeometry width="50" height="50" relative="1" as="geometry">
            <mxPoint x="380" y="287" as="sourcePoint" />
            <mxPoint x="360" y="275" as="targetPoint" />
          </mxGeometry>
        </mxCell>
        <mxCell id="d1SDgLnMbTXoz2OvKtmw-2" value="Posizione" style="text;html=1;align=center;verticalAlign=middle;resizable=0;points=[];autosize=1;strokeColor=none;fillColor=none;labelBackgroundColor=none;" parent="1" vertex="1">
          <mxGeometry x="290" y="260" width="80" height="30" as="geometry" />
        </mxCell>
        <mxCell id="d1SDgLnMbTXoz2OvKtmw-3" value="Punti_Totali" style="text;html=1;align=center;verticalAlign=middle;resizable=0;points=[];autosize=1;strokeColor=none;fillColor=none;fontSize=9;" parent="1" vertex="1">
          <mxGeometry x="325" y="303" width="70" height="20" as="geometry" />
        </mxCell>
        <mxCell id="d1SDgLnMbTXoz2OvKtmw-7" value="" style="endArrow=oval;html=1;rounded=0;endFill=0;exitX=-0.003;exitY=0.142;exitDx=0;exitDy=0;exitPerimeter=0;entryX=0.367;entryY=0.967;entryDx=0;entryDy=0;entryPerimeter=0;dashed=1;" parent="1" source="4EoIY29dNoBSYB-6nft4-67" target="d1SDgLnMbTXoz2OvKtmw-3" edge="1">
          <mxGeometry width="50" height="50" relative="1" as="geometry">
            <mxPoint x="250" y="320" as="sourcePoint" />
            <mxPoint x="300" y="270" as="targetPoint" />
          </mxGeometry>
        </mxCell>
        <mxCell id="d1SDgLnMbTXoz2OvKtmw-9" value="" style="endArrow=oval;html=1;rounded=0;exitX=0;exitY=0.5;exitDx=0;exitDy=0;endFill=0;labelBackgroundColor=none;fontColor=default;" parent="1" source="4EoIY29dNoBSYB-6nft4-75" edge="1">
          <mxGeometry width="50" height="50" relative="1" as="geometry">
            <mxPoint x="-33.749999999999886" y="510" as="sourcePoint" />
            <mxPoint x="-34" y="500" as="targetPoint" />
            <Array as="points">
              <mxPoint x="-33.75" y="500" />
            </Array>
          </mxGeometry>
        </mxCell>
        <mxCell id="d1SDgLnMbTXoz2OvKtmw-10" value="Descrizione" style="text;html=1;align=center;verticalAlign=middle;resizable=0;points=[];autosize=1;strokeColor=none;fillColor=none;" parent="1" vertex="1">
          <mxGeometry x="-113.75" y="485" width="90" height="30" as="geometry" />
        </mxCell>
        <mxCell id="_8jp3dW6xI5IEjL8O2Zi-1" value="" style="endArrow=oval;html=1;rounded=0;endFill=0;labelBackgroundColor=none;fontColor=default;exitX=0.5;exitY=1;exitDx=0;exitDy=0;dashed=1;" edge="1" parent="1">
          <mxGeometry width="50" height="50" relative="1" as="geometry">
            <mxPoint x="430" y="560" as="sourcePoint" />
            <mxPoint x="430" y="580" as="targetPoint" />
            <Array as="points">
              <mxPoint x="430" y="570" />
              <mxPoint x="430" y="580" />
            </Array>
          </mxGeometry>
        </mxCell>
        <mxCell id="_8jp3dW6xI5IEjL8O2Zi-2" value="#Vetture" style="text;html=1;align=center;verticalAlign=middle;resizable=0;points=[];autosize=1;strokeColor=none;fillColor=none;rotation=0;" vertex="1" parent="1">
          <mxGeometry x="395" y="580" width="70" height="30" as="geometry" />
        </mxCell>
      </root>
    </mxGraphModel>
  </diagram>
</mxfile>
